<svg xmlns="http://www.w3.org/2000/svg" width="220mm" height="220mm" viewBox="0 0 220 219.99999"><defs><radialGradient id="a" cx="0" cy="0" r="1" fx="0" fy="0" gradientTransform="translate(154.108 580.444) scale(58.79637)" gradientUnits="userSpaceOnUse" spreadMethod="pad"><stop offset="0" style="stop-opacity:1;stop-color:#fff"/><stop offset="0.258423" style="stop-opacity:1;stop-color:#fff"/><stop offset="0.88048946" style="stop-opacity:1;stop-color:#a3a3a7"/><stop offset="0.904495" style="stop-opacity:1;stop-color:#a3a3a7"/><stop offset="1" style="stop-opacity:1;stop-color:#a3a3a7"/></radialGradient><radialGradient id="b" cx="0" cy="0" r="1" fx="0" fy="0" gradientTransform="matrix(59.54822 0 0 59.54803 153.264 579.666)" gradientUnits="userSpaceOnUse" spreadMethod="pad"><stop offset="0" style="stop-opacity:1;stop-color:#96b1dc"/><stop offset="0.21818053" style="stop-opacity:1;stop-color:#2d5599"/><stop offset="0.247192" style="stop-opacity:1;stop-color:#2d5599"/><stop offset="0.567413" style="stop-opacity:1;stop-color:#144683"/><stop offset="0.90541913" style="stop-opacity:1;stop-color:#010030"/><stop offset="1" style="stop-opacity:1;stop-color:#010030"/></radialGradient><radialGradient id="d" cx="0" cy="0" r="1" fx="0" fy="0" gradientTransform="matrix(63.55454 0 0 63.55454 153.91 580.688)" gradientUnits="userSpaceOnUse" spreadMethod="pad"><stop offset="0" style="stop-opacity:1;stop-color:#96b1dc"/><stop offset="0.21818053" style="stop-opacity:1;stop-color:#2d5599"/><stop offset="0.247192" style="stop-opacity:1;stop-color:#2d5599"/><stop offset="0.567413" style="stop-opacity:1;stop-color:#144683"/><stop offset="0.90541913" style="stop-opacity:1;stop-color:#010030"/><stop offset="1" style="stop-opacity:1;stop-color:#010030"/></radialGradient><radialGradient id="f" cx="0" cy="0" r="1" fx="0" fy="0" gradientTransform="matrix(58.78062 0 0 58.78062 154.063 580.373)" gradientUnits="userSpaceOnUse" spreadMethod="pad"><stop offset="0" style="stop-opacity:1;stop-color:#fff"/><stop offset="0.258423" style="stop-opacity:1;stop-color:#fff"/><stop offset="0.88048946" style="stop-opacity:1;stop-color:#a3a3a7"/><stop offset="0.904495" style="stop-opacity:1;stop-color:#a3a3a7"/><stop offset="1" style="stop-opacity:1;stop-color:#a3a3a7"/></radialGradient><radialGradient id="g" cx="0" cy="0" r="1" fx="0" fy="0" gradientTransform="translate(155.937 577.724) scale(43.58873)" gradientUnits="userSpaceOnUse" spreadMethod="pad"><stop offset="0" style="stop-opacity:1;stop-color:#96b1dc"/><stop offset="0.21818053" style="stop-opacity:1;stop-color:#2d5599"/><stop offset="0.247192" style="stop-opacity:1;stop-color:#2d5599"/><stop offset="0.567413" style="stop-opacity:1;stop-color:#144683"/><stop offset="0.90541913" style="stop-opacity:1;stop-color:#010030"/><stop offset="1" style="stop-opacity:1;stop-color:#010030"/></radialGradient><radialGradient id="h" cx="0" cy="0" r="1" fx="0" fy="0" gradientTransform="matrix(58.92622 0 0 58.92622 152.597 578.432)" gradientUnits="userSpaceOnUse" spreadMethod="pad"><stop offset="0" style="stop-opacity:1;stop-color:#96b1dc"/><stop offset="0.21818053" style="stop-opacity:1;stop-color:#2d5599"/><stop offset="0.247192" style="stop-opacity:1;stop-color:#2d5599"/><stop offset="0.567413" style="stop-opacity:1;stop-color:#144683"/><stop offset="0.90541913" style="stop-opacity:1;stop-color:#010030"/><stop offset="1" style="stop-opacity:1;stop-color:#010030"/></radialGradient><radialGradient id="i" cx="0" cy="0" r="1" fx="0" fy="0" gradientTransform="translate(154.125 580.412) scale(58.66568)" gradientUnits="userSpaceOnUse" spreadMethod="pad"><stop offset="0" style="stop-opacity:1;stop-color:#fff"/><stop offset="0.10112" style="stop-opacity:1;stop-color:#fff"/><stop offset="0.31041043" style="stop-opacity:1;stop-color:#fff"/><stop offset="1" style="stop-opacity:1;stop-color:#96969a"/></radialGradient><radialGradient id="j" cx="0" cy="0" r="1" fx="0" fy="0" gradientTransform="translate(154.409 580.057) scale(63.34082)" gradientUnits="userSpaceOnUse" spreadMethod="pad"><stop offset="0" style="stop-opacity:1;stop-color:#96b1dc"/><stop offset="0.21818053" style="stop-opacity:1;stop-color:#2d5599"/><stop offset="0.247192" style="stop-opacity:1;stop-color:#2d5599"/><stop offset="0.567413" style="stop-opacity:1;stop-color:#144683"/><stop offset="0.90541913" style="stop-opacity:1;stop-color:#010030"/><stop offset="1" style="stop-opacity:1;stop-color:#010030"/></radialGradient><radialGradient id="k" cx="0" cy="0" r="1" fx="0" fy="0" gradientTransform="matrix(63.60844 0 0 63.60844 154.486 580.268)" gradientUnits="userSpaceOnUse" spreadMethod="pad"><stop offset="0" style="stop-opacity:1;stop-color:#96b1dc"/><stop offset="0.21818053" style="stop-opacity:1;stop-color:#2d5599"/><stop offset="0.247192" style="stop-opacity:1;stop-color:#2d5599"/><stop offset="0.567413" style="stop-opacity:1;stop-color:#144683"/><stop offset="0.90541913" style="stop-opacity:1;stop-color:#010030"/><stop offset="1" style="stop-opacity:1;stop-color:#010030"/></radialGradient><radialGradient id="l" cx="0" cy="0" r="1" fx="0" fy="0" gradientTransform="translate(154.47 580.524) scale(63.98152)" gradientUnits="userSpaceOnUse" spreadMethod="pad"><stop offset="0" style="stop-opacity:1;stop-color:#96b1dc"/><stop offset="0.21818053" style="stop-opacity:1;stop-color:#2d5599"/><stop offset="0.247192" style="stop-opacity:1;stop-color:#2d5599"/><stop offset="0.567413" style="stop-opacity:1;stop-color:#144683"/><stop offset="0.90541913" style="stop-opacity:1;stop-color:#010030"/><stop offset="1" style="stop-opacity:1;stop-color:#010030"/></radialGradient><radialGradient id="m" cx="0" cy="0" r="1" fx="0" fy="0" gradientTransform="matrix(63.55379 0 0 63.55379 154.49 580.272)" gradientUnits="userSpaceOnUse" spreadMethod="pad"><stop offset="0" style="stop-opacity:1;stop-color:#96b1dc"/><stop offset="0.21818053" style="stop-opacity:1;stop-color:#2d5599"/><stop offset="0.247192" style="stop-opacity:1;stop-color:#2d5599"/><stop offset="0.567413" style="stop-opacity:1;stop-color:#144683"/><stop offset="0.90541913" style="stop-opacity:1;stop-color:#010030"/><stop offset="1" style="stop-opacity:1;stop-color:#010030"/></radialGradient><radialGradient id="n" cx="0" cy="0" r="1" fx="0" fy="0" gradientTransform="matrix(58.03195 .01521 .01521 -58.03194 152.17 577.133)" gradientUnits="userSpaceOnUse" spreadMethod="pad"><stop offset="0" style="stop-opacity:1;stop-color:#fff"/><stop offset="0.10112" style="stop-opacity:1;stop-color:#fff"/><stop offset="0.31041043" style="stop-opacity:1;stop-color:#fff"/><stop offset="1" style="stop-opacity:1;stop-color:#aeafb2"/></radialGradient><radialGradient id="o" cx="0" cy="0" r="1" fx="0" fy="0" gradientTransform="matrix(57.99057 .01521 .01521 -57.99057 152.183 577.133)" gradientUnits="userSpaceOnUse" spreadMethod="pad"><stop offset="0" style="stop-opacity:1;stop-color:#fff"/><stop offset="0.10112" style="stop-opacity:1;stop-color:#fff"/><stop offset="0.31041043" style="stop-opacity:1;stop-color:#fff"/><stop offset="1" style="stop-opacity:1;stop-color:#aeafb2"/></radialGradient><radialGradient id="p" cx="0" cy="0" r="1" fx="0" fy="0" gradientTransform="matrix(58.02873 0 0 -58.02872 152.184 577.148)" gradientUnits="userSpaceOnUse" spreadMethod="pad"><stop offset="0" style="stop-opacity:1;stop-color:#fff"/><stop offset="0.10112" style="stop-opacity:1;stop-color:#fff"/><stop offset="0.31041043" style="stop-opacity:1;stop-color:#fff"/><stop offset="1" style="stop-opacity:1;stop-color:#aeafb2"/></radialGradient><radialGradient id="q" cx="0" cy="0" r="1" fx="0" fy="0" gradientTransform="matrix(58.0327 0 0 -58.0327 152.18 577.15)" gradientUnits="userSpaceOnUse" spreadMethod="pad"><stop offset="0" style="stop-opacity:1;stop-color:#fff"/><stop offset="0.10112" style="stop-opacity:1;stop-color:#fff"/><stop offset="0.31041043" style="stop-opacity:1;stop-color:#fff"/><stop offset="1" style="stop-opacity:1;stop-color:#aeafb2"/></radialGradient><radialGradient id="r" cx="0" cy="0" r="1" fx="0" fy="0" gradientTransform="matrix(58.0141 0 0 -58.0141 152.182 577.138)" gradientUnits="userSpaceOnUse" spreadMethod="pad"><stop offset="0" style="stop-opacity:1;stop-color:#fff"/><stop offset="0.10112" style="stop-opacity:1;stop-color:#fff"/><stop offset="0.31041043" style="stop-opacity:1;stop-color:#fff"/><stop offset="1" style="stop-opacity:1;stop-color:#aeafb2"/></radialGradient><radialGradient id="s" cx="0" cy="0" r="1" fx="0" fy="0" gradientTransform="matrix(58.02687 0 0 -58.02687 152.178 577.145)" gradientUnits="userSpaceOnUse" spreadMethod="pad"><stop offset="0" style="stop-opacity:1;stop-color:#fff"/><stop offset="0.10112" style="stop-opacity:1;stop-color:#fff"/><stop offset="0.31041043" style="stop-opacity:1;stop-color:#fff"/><stop offset="1" style="stop-opacity:1;stop-color:#aeafb2"/></radialGradient><radialGradient id="t" cx="0" cy="0" r="1" fx="0" fy="0" gradientTransform="matrix(58.0283 0 0 -58.0283 152.18 577.147)" gradientUnits="userSpaceOnUse" spreadMethod="pad"><stop offset="0" style="stop-opacity:1;stop-color:#fff"/><stop offset="0.10112" style="stop-opacity:1;stop-color:#fff"/><stop offset="0.31041043" style="stop-opacity:1;stop-color:#fff"/><stop offset="1" style="stop-opacity:1;stop-color:#aeafb2"/></radialGradient><radialGradient id="u" cx="0" cy="0" r="1" fx="0" fy="0" gradientTransform="matrix(58.01776 0 0 -58.01776 152.185 577.14)" gradientUnits="userSpaceOnUse" spreadMethod="pad"><stop offset="0" style="stop-opacity:1;stop-color:#fff"/><stop offset="0.10112" style="stop-opacity:1;stop-color:#fff"/><stop offset="0.31041043" style="stop-opacity:1;stop-color:#fff"/><stop offset="1" style="stop-opacity:1;stop-color:#aeafb2"/></radialGradient><radialGradient id="v" cx="0" cy="0" r="1" fx="0" fy="0" gradientTransform="matrix(57.98016 0 0 -57.98015 152.196 577.114)" gradientUnits="userSpaceOnUse" spreadMethod="pad"><stop offset="0" style="stop-opacity:1;stop-color:#fff"/><stop offset="0.10112" style="stop-opacity:1;stop-color:#fff"/><stop offset="0.31041043" style="stop-opacity:1;stop-color:#fff"/><stop offset="1" style="stop-opacity:1;stop-color:#aeafb2"/></radialGradient><radialGradient id="w" cx="0" cy="0" r="1" fx="0" fy="0" gradientTransform="matrix(58.01935 0 0 -58.01935 152.18 577.14)" gradientUnits="userSpaceOnUse" spreadMethod="pad"><stop offset="0" style="stop-opacity:1;stop-color:#fff"/><stop offset="0.10112" style="stop-opacity:1;stop-color:#fff"/><stop offset="0.31041043" style="stop-opacity:1;stop-color:#fff"/><stop offset="1" style="stop-opacity:1;stop-color:#aeafb2"/></radialGradient><radialGradient id="x" cx="0" cy="0" r="1" fx="0" fy="0" gradientTransform="matrix(58.04436 0 0 -58.04436 152.156 577.147)" gradientUnits="userSpaceOnUse" spreadMethod="pad"><stop offset="0" style="stop-opacity:1;stop-color:#fff"/><stop offset="0.10112" style="stop-opacity:1;stop-color:#fff"/><stop offset="0.31041043" style="stop-opacity:1;stop-color:#fff"/><stop offset="1" style="stop-opacity:1;stop-color:#aeafb2"/></radialGradient><radialGradient id="y" cx="0" cy="0" r="1" fx="0" fy="0" gradientTransform="matrix(58.02808 0 0 -58.02808 152.186 577.152)" gradientUnits="userSpaceOnUse" spreadMethod="pad"><stop offset="0" style="stop-opacity:1;stop-color:#fff"/><stop offset="0.10112" style="stop-opacity:1;stop-color:#fff"/><stop offset="0.31041043" style="stop-opacity:1;stop-color:#fff"/><stop offset="1" style="stop-opacity:1;stop-color:#aeafb2"/></radialGradient><radialGradient id="z" cx="0" cy="0" r="1" fx="0" fy="0" gradientTransform="matrix(58.02437 0 0 -58.02437 152.198 577.16)" gradientUnits="userSpaceOnUse" spreadMethod="pad"><stop offset="0" style="stop-opacity:1;stop-color:#fff"/><stop offset="0.10112" style="stop-opacity:1;stop-color:#fff"/><stop offset="0.31041043" style="stop-opacity:1;stop-color:#fff"/><stop offset="1" style="stop-opacity:1;stop-color:#aeafb2"/></radialGradient><radialGradient id="A" cx="0" cy="0" r="1" fx="0" fy="0" gradientTransform="matrix(58.02925 0 0 -58.02924 152.199 577.17)" gradientUnits="userSpaceOnUse" spreadMethod="pad"><stop offset="0" style="stop-opacity:1;stop-color:#fff"/><stop offset="0.10112" style="stop-opacity:1;stop-color:#fff"/><stop offset="0.31041043" style="stop-opacity:1;stop-color:#fff"/><stop offset="1" style="stop-opacity:1;stop-color:#aeafb2"/></radialGradient><radialGradient id="B" cx="0" cy="0" r="1" fx="0" fy="0" gradientTransform="matrix(58.02649 0 0 -58.02649 152.178 577.144)" gradientUnits="userSpaceOnUse" spreadMethod="pad"><stop offset="0" style="stop-opacity:1;stop-color:#fff"/><stop offset="0.10112" style="stop-opacity:1;stop-color:#fff"/><stop offset="0.31041043" style="stop-opacity:1;stop-color:#fff"/><stop offset="1" style="stop-opacity:1;stop-color:#aeafb2"/></radialGradient><radialGradient id="C" cx="0" cy="0" r="1" fx="0" fy="0" gradientTransform="matrix(58.0243 0 0 -58.0243 152.184 577.144)" gradientUnits="userSpaceOnUse" spreadMethod="pad"><stop offset="0" style="stop-opacity:1;stop-color:#fff"/><stop offset="0.10112" style="stop-opacity:1;stop-color:#fff"/><stop offset="0.31041043" style="stop-opacity:1;stop-color:#fff"/><stop offset="1" style="stop-opacity:1;stop-color:#aeafb2"/></radialGradient><radialGradient id="D" cx="0" cy="0" r="1" fx="0" fy="0" gradientTransform="matrix(58.04155 0 0 -58.04155 152.184 577.146)" gradientUnits="userSpaceOnUse" spreadMethod="pad"><stop offset="0" style="stop-opacity:1;stop-color:#fff"/><stop offset="0.10112" style="stop-opacity:1;stop-color:#fff"/><stop offset="0.31041043" style="stop-opacity:1;stop-color:#fff"/><stop offset="1" style="stop-opacity:1;stop-color:#aeafb2"/></radialGradient><radialGradient id="E" cx="0" cy="0" r="1" fx="0" fy="0" gradientTransform="matrix(57.99924 0 0 -57.99924 152.18 577.146)" gradientUnits="userSpaceOnUse" spreadMethod="pad"><stop offset="0" style="stop-opacity:1;stop-color:#fff"/><stop offset="0.10112" style="stop-opacity:1;stop-color:#fff"/><stop offset="0.31041043" style="stop-opacity:1;stop-color:#fff"/><stop offset="1" style="stop-opacity:1;stop-color:#aeafb2"/></radialGradient><radialGradient id="F" cx="0" cy="0" r="1" fx="0" fy="0" gradientTransform="matrix(58.04318 0 0 -58.04317 152.18 577.143)" gradientUnits="userSpaceOnUse" spreadMethod="pad"><stop offset="0" style="stop-opacity:1;stop-color:#fff"/><stop offset="0.10112" style="stop-opacity:1;stop-color:#fff"/><stop offset="0.31041043" style="stop-opacity:1;stop-color:#fff"/><stop offset="1" style="stop-opacity:1;stop-color:#aeafb2"/></radialGradient><radialGradient id="G" cx="0" cy="0" r="1" fx="0" fy="0" gradientTransform="matrix(58.01683 0 0 -58.01683 152.183 577.146)" gradientUnits="userSpaceOnUse" spreadMethod="pad"><stop offset="0" style="stop-opacity:1;stop-color:#fff"/><stop offset="0.10112" style="stop-opacity:1;stop-color:#fff"/><stop offset="0.31041043" style="stop-opacity:1;stop-color:#fff"/><stop offset="1" style="stop-opacity:1;stop-color:#aeafb2"/></radialGradient><radialGradient id="H" cx="0" cy="0" r="1" fx="0" fy="0" gradientTransform="matrix(58.0197 0 0 -58.01968 152.182 577.148)" gradientUnits="userSpaceOnUse" spreadMethod="pad"><stop offset="0" style="stop-opacity:1;stop-color:#fff"/><stop offset="0.10112" style="stop-opacity:1;stop-color:#fff"/><stop offset="0.31041043" style="stop-opacity:1;stop-color:#fff"/><stop offset="1" style="stop-opacity:1;stop-color:#aeafb2"/></radialGradient><radialGradient id="I" cx="0" cy="0" r="1" fx="0" fy="0" gradientTransform="matrix(58.00215 0 0 -58.00214 152.19 577.143)" gradientUnits="userSpaceOnUse" spreadMethod="pad"><stop offset="0" style="stop-opacity:1;stop-color:#fff"/><stop offset="0.10112" style="stop-opacity:1;stop-color:#fff"/><stop offset="0.31041043" style="stop-opacity:1;stop-color:#fff"/><stop offset="1" style="stop-opacity:1;stop-color:#aeafb2"/></radialGradient><radialGradient id="J" cx="0" cy="0" r="1" fx="0" fy="0" gradientTransform="matrix(58.04115 0 0 -58.04115 152.176 577.144)" gradientUnits="userSpaceOnUse" spreadMethod="pad"><stop offset="0" style="stop-opacity:1;stop-color:#fff"/><stop offset="0.10112" style="stop-opacity:1;stop-color:#fff"/><stop offset="0.31041043" style="stop-opacity:1;stop-color:#fff"/><stop offset="1" style="stop-opacity:1;stop-color:#aeafb2"/></radialGradient><radialGradient id="K" cx="0" cy="0" r="1" fx="0" fy="0" gradientTransform="matrix(58.0569 0 0 -58.05689 152.167 577.142)" gradientUnits="userSpaceOnUse" spreadMethod="pad"><stop offset="0" style="stop-opacity:1;stop-color:#fff"/><stop offset="0.10112" style="stop-opacity:1;stop-color:#fff"/><stop offset="0.31041043" style="stop-opacity:1;stop-color:#fff"/><stop offset="1" style="stop-opacity:1;stop-color:#aeafb2"/></radialGradient><radialGradient id="L" cx="0" cy="0" r="1" fx="0" fy="0" gradientTransform="matrix(58.07248 0 0 -58.07248 152.156 577.15)" gradientUnits="userSpaceOnUse" spreadMethod="pad"><stop offset="0" style="stop-opacity:1;stop-color:#fff"/><stop offset="0.10112" style="stop-opacity:1;stop-color:#fff"/><stop offset="0.31041043" style="stop-opacity:1;stop-color:#fff"/><stop offset="1" style="stop-opacity:1;stop-color:#aeafb2"/></radialGradient><radialGradient id="M" cx="0" cy="0" r="1" fx="0" fy="0" gradientTransform="matrix(58.05064 0 0 -58.05063 152.168 577.152)" gradientUnits="userSpaceOnUse" spreadMethod="pad"><stop offset="0" style="stop-opacity:1;stop-color:#fff"/><stop offset="0.10112" style="stop-opacity:1;stop-color:#fff"/><stop offset="0.31041043" style="stop-opacity:1;stop-color:#fff"/><stop offset="1" style="stop-opacity:1;stop-color:#aeafb2"/></radialGradient><radialGradient id="N" cx="0" cy="0" r="1" fx="0" fy="0" gradientTransform="matrix(58.0212 0 0 -58.0212 152.184 577.145)" gradientUnits="userSpaceOnUse" spreadMethod="pad"><stop offset="0" style="stop-opacity:1;stop-color:#fff"/><stop offset="0.10112" style="stop-opacity:1;stop-color:#fff"/><stop offset="0.31041043" style="stop-opacity:1;stop-color:#fff"/><stop offset="1" style="stop-opacity:1;stop-color:#aeafb2"/></radialGradient><radialGradient id="O" cx="0" cy="0" r="1" fx="0" fy="0" gradientTransform="matrix(58.0151 0 0 -58.0151 152.19 577.146)" gradientUnits="userSpaceOnUse" spreadMethod="pad"><stop offset="0" style="stop-opacity:1;stop-color:#fff"/><stop offset="0.10112" style="stop-opacity:1;stop-color:#fff"/><stop offset="0.31041043" style="stop-opacity:1;stop-color:#fff"/><stop offset="1" style="stop-opacity:1;stop-color:#aeafb2"/></radialGradient><radialGradient id="P" cx="0" cy="0" r="1" fx="0" fy="0" gradientTransform="matrix(58.06444 0 0 -58.06444 152.155 577.145)" gradientUnits="userSpaceOnUse" spreadMethod="pad"><stop offset="0" style="stop-opacity:1;stop-color:#fff"/><stop offset="0.10112" style="stop-opacity:1;stop-color:#fff"/><stop offset="0.31041043" style="stop-opacity:1;stop-color:#fff"/><stop offset="1" style="stop-opacity:1;stop-color:#aeafb2"/></radialGradient><radialGradient id="Q" cx="0" cy="0" r="1" fx="0" fy="0" gradientTransform="matrix(58.06142 0 0 -58.06142 152.155 577.146)" gradientUnits="userSpaceOnUse" spreadMethod="pad"><stop offset="0" style="stop-opacity:1;stop-color:#fff"/><stop offset="0.10112" style="stop-opacity:1;stop-color:#fff"/><stop offset="0.31041043" style="stop-opacity:1;stop-color:#fff"/><stop offset="1" style="stop-opacity:1;stop-color:#aeafb2"/></radialGradient><radialGradient id="R" cx="0" cy="0" r="1" fx="0" fy="0" gradientTransform="matrix(58.05582 0 0 -58.0558 152.16 577.146)" gradientUnits="userSpaceOnUse" spreadMethod="pad"><stop offset="0" style="stop-opacity:1;stop-color:#fff"/><stop offset="0.10112" style="stop-opacity:1;stop-color:#fff"/><stop offset="0.31041043" style="stop-opacity:1;stop-color:#fff"/><stop offset="1" style="stop-opacity:1;stop-color:#aeafb2"/></radialGradient><radialGradient id="S" cx="0" cy="0" r="1" fx="0" fy="0" gradientTransform="matrix(57.97266 0 0 -57.97266 152.224 577.148)" gradientUnits="userSpaceOnUse" spreadMethod="pad"><stop offset="0" style="stop-opacity:1;stop-color:#fff"/><stop offset="0.10112" style="stop-opacity:1;stop-color:#fff"/><stop offset="0.31041043" style="stop-opacity:1;stop-color:#fff"/><stop offset="1" style="stop-opacity:1;stop-color:#aeafb2"/></radialGradient><linearGradient id="c" x1="0" x2="1" y1="0" y2="0" gradientTransform="rotate(-45 780.62 118.017) scale(68.7271)" gradientUnits="userSpaceOnUse" spreadMethod="pad"><stop offset="0" style="stop-opacity:1;stop-color:#c3c6c8"/><stop offset="0.74781451" style="stop-opacity:1;stop-color:#504f53"/><stop offset="1" style="stop-opacity:1;stop-color:#504f53"/></linearGradient><linearGradient id="e" x1="0" x2="1" y1="0" y2="0" gradientTransform="scale(-47.18775) rotate(-45 -15.931 -1.027)" gradientUnits="userSpaceOnUse" spreadMethod="pad"><stop offset="0" style="stop-opacity:1;stop-color:#fff"/><stop offset="0.74781451" style="stop-opacity:1;stop-color:#504f53"/><stop offset="1" style="stop-opacity:1;stop-color:#504f53"/></linearGradient></defs><path d="M133.618 562.407c0-19.711 15.981-35.687 35.685-35.687 19.703 0 35.678 15.976 35.678 35.687 0 19.709-15.975 35.689-35.678 35.689-19.704 0-35.685-15.98-35.685-35.689" style="fill:url(#a);stroke:none" transform="matrix(3.07078 0 0 -3.07057 -409.882 1836.908)"/><path d="M133.478 562.407c0-19.749 16.068-35.824 35.825-35.824 19.747 0 35.818 16.075 35.818 35.824 0 19.753-16.071 35.824-35.818 35.824-19.757 0-35.825-16.071-35.825-35.824m.273 0c0 19.601 15.953 35.551 35.552 35.551 19.598 0 35.545-15.95 35.545-35.551 0-19.599-15.947-35.549-35.545-35.549-19.599 0-35.552 15.95-35.552 35.549" style="fill:url(#b);stroke:none" transform="matrix(3.07078 0 0 -3.07057 -409.882 1836.908)"/><path d="M135.029 562.407c0-18.929 15.345-34.275 34.274-34.275 18.924 0 34.269 15.346 34.269 34.275 0 18.93-15.345 34.28-34.269 34.28-18.929 0-34.274-15.35-34.274-34.28" style="fill:url(#c);stroke:none" transform="matrix(3.07078 0 0 -3.07057 -409.882 1836.908)"/><path d="M135.446 562.407c0-18.695 15.159-33.851 33.857-33.851 18.693 0 33.847 15.156 33.847 33.851 0 18.701-15.154 33.857-33.847 33.857-18.698 0-33.857-15.156-33.857-33.857" style="fill:url(#d);stroke:none" transform="matrix(3.07078 0 0 -3.07057 -409.882 1836.908)"/><path d="M145.678 562.407c0-13.046 10.576-23.624 23.625-23.624 13.044 0 23.617 10.578 23.617 23.624 0 13.05-10.573 23.631-23.617 23.631-13.049 0-23.625-10.581-23.625-23.631" style="fill:url(#e);stroke:none" transform="matrix(3.07078 0 0 -3.07057 -409.882 1836.908)"/><path d="M146.256 562.428c0-12.725 10.318-23.043 23.047-23.043 12.724 0 23.04 10.318 23.04 23.043 0 12.729-10.316 23.046-23.04 23.046-12.729 0-23.047-10.317-23.047-23.046" style="fill:url(#f);stroke:none" transform="matrix(3.07078 0 0 -3.07057 -409.882 1836.908)"/><path d="M179.505 572.868v-1.136h-13.806v1.136h-3.301v-1.136h-8.669v-2.925h2.614c-1.814-.786-2.978-2.513-2.978-5.037 0-3.378 3.179-5.307 5.741-5.307h9.562v1.029h2.707v-1.029h13.677v2.925h-2.256v7.419h2.256v2.925h-2.256v1.136z" style="fill:url(#g);stroke:none" transform="matrix(3.07078 0 0 -3.07057 -409.882 1836.908)"/><path d="M178.46 573.984v-1.187h-11.551v1.175l-5.551.012v-1.187h-8.789v-4.975h.858c-.875-1.11-1.303-2.422-1.303-4.129 0-1.384.597-2.913 1.598-4.083 1.17-1.516 3.225-2.461 5.357-2.461h10.737v1.072h.608v-1.042l15.883-.03-.01 5.16h-2.281v5.392h2.291l.01 5.096h-2.225v1.195zm.283-1.47v1.187l5.064.006v-1.193h2.218l-.005-4.533h-2.294v-5.962h2.286c.003-.258.008-4.326.008-4.584l-15.304.024v1.049h-1.181v-1.073h-10.456c-2.045 0-4.01.9-5.136 2.352-.963 1.128-1.533 2.586-1.533 3.906 0 1.751.442 3.081 1.4 4.183l.209.233-1.165-.005v4.41h8.789v1.187l4.98-.01v-1.177z" style="fill:url(#h);stroke:none" transform="matrix(3.07078 0 0 -3.07057 -409.882 1836.908)"/><path d="M177.066 569.837v-5.461a3.593 3.593 0 0 1-1.541.335c-1.605 0-2.879-.964-2.889-2.135.01-1.188 1.284-2.147 2.889-2.147 1.6 0 2.874.959 2.881 2.147h.003v3.478h1.13v.77h-1.13v1.113h1.13v.767h-1.13v1.133zm-3.09-7.261c0 .869.74 1.393 1.549 1.393.808 0 1.541-.524 1.541-1.393s-.733-1.4-1.541-1.4c-.809 0-1.549.531-1.549 1.4m-9.145 7.261v-6.296h1.334v3.283h1.092v.769h-1.092v2.244zm-4.588-.77h2.626v.77h-2.626zm11.132-1.546c0-1.207 1.15-2.172 2.658-2.172 1.521 0 2.662.965 2.662 2.172 0 1.194-1.141 2.168-2.662 2.168-1.508 0-2.658-.974-2.658-2.168m1.367 0c0 .897.573 1.505 1.291 1.505.717 0 1.3-.608 1.3-1.505 0-.93-.583-1.512-1.3-1.512-.713 0-1.291.582-1.291 1.512m-13.653 1.225v-.775h.931c-.561-.344-.912-.87-.912-1.462 0-1.033 1.058-1.874 2.448-1.874 1.384 0 2.435.841 2.435 1.874 0 .592-.342 1.118-.903 1.462h.929v.775zm1.28-2.237c0 .769.528 1.354 1.187 1.354.653 0 1.184-.585 1.184-1.354 0-.785-.531-1.35-1.184-1.35-.659 0-1.187.565-1.187 1.35m-.233-2.589v-1.79c0-.895.577-1.443 1.528-1.443l4.59-.002v.769h-4.665v2.466z" style="fill:url(#i);stroke:none" transform="matrix(3.07078 0 0 -3.07057 -409.882 1836.908)"/><path d="M165.382 552.176a2.03 2.03 0 0 1-.646-.304 1.645 1.645 0 0 1-.468-.534c-.128-.214-.186-.475-.186-.775 0-.253.058-.471.16-.643.102-.182.238-.327.397-.438.165-.118.35-.194.554-.253.204-.049.405-.077.59-.077.253 0 .486.047.712.136.225.091.45.194.675.322-.053-.939-.495-1.409-1.329-1.409-.083 0-.186.008-.287.022a1.186 1.186 0 0 0-.322.079 1.64 1.64 0 0 0-.293.133.744.744 0 0 0-.216.204.204.204 0 0 0-.042.104.625.625 0 0 0-.014.109l-.094.054-.483-.978.063-.064a.233.233 0 0 0 .149.054.343.343 0 0 0 .173-.068c.068-.047.159-.094.277-.145a1.48 1.48 0 0 1 .415-.15c.17-.035.379-.06.614-.06.35 0 .663.062.948.177.279.116.522.288.722.512.207.221.365.489.47.806.114.31.166.656.166 1.042 0 .331-.047.63-.146.906a1.966 1.966 0 0 1-.409.71 1.821 1.821 0 0 1-.628.461 1.932 1.932 0 0 1-.809.165c-.239 0-.47-.031-.713-.098m.26-2.247a.993.993 0 0 0-.332.133.649.649 0 0 0-.228.248.895.895 0 0 0-.089.384c0 .157.04.282.089.391a.65.65 0 0 0 .228.246c.104.061.209.108.332.135.126.022.249.04.379.04.125 0 .248-.018.376-.04.125-.027.236-.074.332-.135a.601.601 0 0 0 .226-.246.754.754 0 0 0 .087-.391.73.73 0 0 0-.087-.384.6.6 0 0 0-.226-.248.916.916 0 0 0-.332-.133 1.68 1.68 0 0 0-.376-.042c-.13 0-.253.013-.379.042" style="fill:url(#j);stroke:none" transform="matrix(3.07078 0 0 -3.07057 -409.882 1836.908)"/><path d="M174.091 552.176a1.984 1.984 0 0 1-.637-.304 1.626 1.626 0 0 1-.473-.534c-.126-.214-.183-.475-.183-.775 0-.253.052-.471.152-.643a1.31 1.31 0 0 1 .404-.438c.163-.118.35-.194.554-.253.209-.049.405-.077.597-.077.245 0 .482.047.703.136.229.091.458.194.683.322-.056-.939-.499-1.409-1.332-1.409-.09 0-.187.008-.293.022a1.244 1.244 0 0 0-.318.079 1.22 1.22 0 0 0-.294.133.784.784 0 0 0-.216.204.33.33 0 0 0-.04.104.541.541 0 0 0-.014.109l-.096.054-.482-.978.061-.064a.233.233 0 0 0 .156.054.34.34 0 0 0 .164-.068c.069-.047.162-.094.274-.145.109-.064.253-.109.419-.15.172-.035.379-.06.616-.06.345 0 .663.062.945.177.283.116.524.288.73.512.203.221.36.489.465.806.11.31.165.656.165 1.042 0 .331-.045.63-.14.906a2.093 2.093 0 0 1-.419.71 1.762 1.762 0 0 1-.629.461 1.9 1.9 0 0 1-.806.165c-.229 0-.472-.031-.716-.098m.264-2.247a.93.93 0 0 0-.332.133.772.772 0 0 0-.229.248.83.83 0 0 0-.08.384c0 .157.026.282.08.391a.775.775 0 0 0 .229.246c.101.061.204.108.332.135.125.022.251.04.379.04.132 0 .253-.018.378-.04a.926.926 0 0 0 .332-.135.754.754 0 0 0 .233-.246.96.96 0 0 0 .08-.391.928.928 0 0 0-.08-.384.75.75 0 0 0-.233-.248.842.842 0 0 0-.332-.133 1.635 1.635 0 0 0-.378-.042c-.128 0-.254.013-.379.042" style="fill:url(#k);stroke:none" transform="matrix(3.07078 0 0 -3.07057 -409.882 1836.908)"/><path d="M169.656 552.169a2.744 2.744 0 0 1-.537-.223 2.26 2.26 0 0 1-.31-.227c-.074-.071-.123-.105-.15-.105a.232.232 0 0 0-.135.041l-.099-.078.637-.915.076.057a.197.197 0 0 0-.019.095c0 .03-.01.057-.01.084 0 .068.034.142.114.213.082.07.186.138.312.195.117.062.259.111.407.143.155.039.295.057.437.057.123 0 .255-.008.366-.021.126-.015.232-.046.331-.088a.552.552 0 0 0 .238-.172.438.438 0 0 0 .096-.29.5.5 0 0 0-.106-.31.808.808 0 0 0-.251-.199 1.504 1.504 0 0 0-.314-.096 1.675 1.675 0 0 0-.3-.027.953.953 0 0 0-.347.06c-.104.038-.16.117-.177.24h-.091v-1.22h.091c.039.111.096.175.192.205.097.027.204.037.332.037.094 0 .204-.008.332-.02a1.49 1.49 0 0 0 .349-.097.796.796 0 0 0 .285-.198.542.542 0 0 0 .11-.349.538.538 0 0 0-.12-.362.859.859 0 0 0-.29-.221 1.594 1.594 0 0 0-.366-.111 2.428 2.428 0 0 0-.345-.037c-.12 0-.277.026-.452.062a2.518 2.518 0 0 0-.519.175 1.386 1.386 0 0 0-.423.27.502.502 0 0 0-.172.366v.059c0 .037.004.059.01.067l-.085.051-.472-1.285.07-.025c.023.012.042.025.062.036.017.013.044.02.071.02.04 0 .116-.031.218-.083.107-.061.24-.127.404-.191.155-.067.341-.126.546-.178.214-.054.44-.079.678-.079.213 0 .443.025.686.062.241.039.465.115.667.231s.373.273.506.47c.135.194.204.449.204.749 0 .273-.074.492-.219.667a1.029 1.029 0 0 1-.565.351v.02a.731.731 0 0 1 .46.344c.11.181.167.379.167.595 0 .234-.057.428-.16.593a1.256 1.256 0 0 1-.425.4 2.028 2.028 0 0 1-.575.229 2.828 2.828 0 0 1-.63.068c-.306 0-.57-.036-.79-.105" style="fill:url(#l);stroke:none" transform="matrix(3.07078 0 0 -3.07057 -409.882 1836.908)"/><path d="M162.266 552.274v-.105c.058-.013.105-.027.136-.057.037-.021.05-.074.05-.157a.3.3 0 0 0-.089-.226.309.309 0 0 0-.229-.096.381.381 0 0 0-.138.032c-.053.02-.073.059-.073.108h-.096v-1.121h.096a.224.224 0 0 0 .079.113.622.622 0 0 0 .135.062c.052.012.099.024.153.031.048.005.091.005.129.005v-2.981c0-.103-.021-.173-.056-.201a.203.203 0 0 0-.144-.05v-.111h1.326v.111a.214.214 0 0 0-.147.05c-.042.028-.059.098-.059.201v4.09c0 .059.017.103.059.137a.556.556 0 0 0 .162.06v.105z" style="fill:url(#m);stroke:none" transform="matrix(3.07078 0 0 -3.07057 -409.882 1836.908)"/><path d="M201.409 563.308h-2.163v2.158h-1.957l.003-2.158h-2.162l.002-1.954 2.161.002v-2.161h1.953v2.161h2.163z" style="fill:url(#n);stroke:none" transform="matrix(3.07078 0 0 -3.07057 -409.882 1836.908)"/><path d="M143.46 563.308h-2.163v2.158h-1.954l.002-2.158h-2.163v-1.954l2.163.002v-2.161h1.952v2.161h2.163z" style="fill:url(#o);stroke:none" transform="matrix(3.07078 0 0 -3.07057 -409.882 1836.908)"/><path d="m140.722 547.901.59-.958 1.601.873c.411.218 1.025.548 1.561.845l.01-.017a19.483 19.483 0 0 1-1.281-1.136l-1.318-1.274.504-.818 1.741.582c.342.118 1.035.364 1.605.603l.009-.015a25.923 25.923 0 0 1-1.478-.971l-1.505-1.032.613-1.004 4.751 3.337-.728 1.179-1.773-.656a29.348 29.348 0 0 1-1.922-.777l-.01.015c.507.422 1.005.897 1.542 1.401l1.389 1.286-.731 1.188z" style="fill:url(#p);stroke:none" transform="matrix(3.07078 0 0 -3.07057 -409.882 1836.908)"/><path d="m145.126 541.485 1.879-2.009.842.787-.971 1.035.959.893.859-.923.808.753-.866.922.791.74.903-.969.84.79-1.811 1.939z" style="fill:url(#q);stroke:none" transform="matrix(3.07078 0 0 -3.07057 -409.882 1836.908)"/><path d="M148.906 537.771c.17-.161.454-.423.772-.66.696-.516 1.269-.717 1.802-.673.732.045 1.488.573 2.151 1.463.644.87.924 1.625.796 2.31-.098.534-.427 1.001-1.054 1.466a6.71 6.71 0 0 1-1.071.661zm1.809-.081c-.047.034-.108.078-.13.119l2.201 2.96c.061-.014.11-.051.166-.09.46-.344.251-1.048-.39-1.908-.637-.858-1.14-1.192-1.512-1.192a.552.552 0 0 0-.335.111" style="fill:url(#r);stroke:none" transform="matrix(3.07078 0 0 -3.07057 -409.882 1836.908)"/><path d="m153.703 534.504 1.177-.625 2.724 5.116-1.18.624z" style="fill:url(#s);stroke:none" transform="matrix(3.07078 0 0 -3.07057 -409.882 1836.908)"/><path d="M157.744 535.597c-.524-1.414-.364-2.908 1.165-3.476.378-.137.708-.194.878-.181l.283 1.086a2.281 2.281 0 0 0-.512.116c-.625.228-.89.887-.469 2.022.447 1.21 1.104 1.537 1.72 1.309.207-.077.331-.177.423-.279l.583.979c-.084.104-.317.283-.713.428a2.361 2.361 0 0 1-.815.147c-.955-.001-1.972-.6-2.543-2.151" style="fill:url(#t);stroke:none" transform="matrix(3.07078 0 0 -3.07057 -409.882 1836.908)"/><path d="m161.397 531.383 1.271-.238.401 1.084.924-.174-.029-1.158 1.268-.239.034 5.888-1.585.3zm1.989 1.826.376 1.051c.108.292.312.912.438 1.256l.019-.007c-.019-.364-.059-.994-.079-1.319l-.06-1.113z" style="fill:url(#u);stroke:none" transform="matrix(3.07078 0 0 -3.07057 -409.882 1836.908)"/><path d="m167.251 530.499 2.751-.071.026 1.123-1.417.037.129 4.665-1.33.035z" style="fill:url(#v);stroke:none" transform="matrix(3.07078 0 0 -3.07057 -409.882 1836.908)"/><path d="M175.704 537.072c-1.182-.254-2.212-1.398-1.762-3.491.317-1.469 1.249-2.65 2.845-2.303.392.083.703.209.838.31l-.342 1.069a2.436 2.436 0 0 0-.494-.177c-.655-.143-1.227.273-1.482 1.458-.271 1.259.115 1.888.751 2.023.217.047.371.028.512-.005l-.034 1.138a.985.985 0 0 1-.313.04c-.141 0-.316-.017-.519-.062" style="fill:url(#w);stroke:none" transform="matrix(3.07078 0 0 -3.07057 -409.882 1836.908)"/><path d="m177.753 537.61 2.143-5.383 2.556 1.015-.427 1.072-1.32-.526-.48 1.214 1.173.47-.404 1.02-1.176-.465-.397 1.006 1.225.484-.423 1.074z" style="fill:url(#x);stroke:none" transform="matrix(3.07078 0 0 -3.07057 -409.882 1836.908)"/><path d="m183.642 540.521.489-.796c.579-.927 1.257-1.832 1.537-2.218l-.017-.01c-.358.302-.981.779-1.298 1.015l-1.792 1.338-1.03-.644 3.06-4.919.986.614-.525.846a46.703 46.703 0 0 1-1.439 2.163l.018.013c.312-.313.941-.822 1.334-1.105l1.694-1.245 1.025.639-3.059 4.921z" style="fill:url(#y);stroke:none" transform="matrix(3.07078 0 0 -3.07057 -409.882 1836.908)"/><path d="m185.437 541.755.818-.926.755.666 3.025-3.403.994.883-3.025 3.407.759.676-.823.924z" style="fill:url(#z);stroke:none" transform="matrix(3.07078 0 0 -3.07057 -409.882 1836.908)"/><path d="m188.682 544.789 4.467-3.685 1.75 2.122-.89.732-.899-1.092-1.009.831.801.974-.847.7-.799-.975-.839.691.841 1.022-.887.733z" style="fill:url(#A);stroke:none" transform="matrix(3.07078 0 0 -3.07057 -409.882 1836.908)"/><path d="M193.07 550.453c-.514-.172-.885-.666-1.199-1.22a8.114 8.114 0 0 1-.569-1.228l4.967-2.816.65 1.151-1.929 1.094.064.113c.143.253.367.31 1.003.042.568-.232 1.164-.408 1.33-.425l.686 1.211c-.246.013-1.042.266-1.595.46-.544.192-.934.197-1.273-.049l-.016.007c.054.652-.315 1.188-.809 1.468-.298.17-.571.272-.862.272-.143 0-.291-.025-.448-.08m-.283-1.767a.663.663 0 0 0 .091.226c.217.351.571.336.942.128.361-.205.578-.576.369-.952l-.086-.147z" style="fill:url(#B);stroke:none" transform="matrix(3.07078 0 0 -3.07057 -409.882 1836.908)"/><path d="m139.629 572.676 1.934-.629-.32-.981-1.929.629-.308-.937 4.824-1.567.304.936-2.018.659.32.98 2.016-.658.308.936-4.822 1.569z" style="fill:url(#C);stroke:none" transform="matrix(3.07078 0 0 -3.07057 -409.882 1836.908)"/><path d="m141.293 576.612 3.972-3.341.445.846-.92.743.426.806 1.127-.349.446.845-4.948 1.495zm2.023-.651c-.237.187-.666.496-.947.703l.015.017c.323-.118.797-.29 1.094-.389l1.015-.351-.336-.639z" style="fill:url(#D);stroke:none" transform="matrix(3.07078 0 0 -3.07057 -409.882 1836.908)"/><path d="m144.841 582.119.884-.681c.739-.57 1.48-1.055 1.92-1.355l-.01-.014c-.436.159-1.099.359-1.502.476l-2.052.593-.551-.717 4.016-3.094.532.686-.903.693c-.811.625-1.455 1.072-1.873 1.367l.008.01c.434-.189 1.084-.393 1.523-.525l1.999-.561.551.715-4.018 3.093z" style="fill:url(#E);stroke:none" transform="matrix(3.07078 0 0 -3.07057 -409.882 1836.908)"/><path d="m148.295 585.784.591-1.077c.18-.326.374-.648.583-.958l-.012-.01c-.313.222-.642.43-.927.602l-1.088.649-.761-.723 2.953-1.519 1.328-1.418.717.676-1.352 1.445-1.289 3.031z" style="fill:url(#F);stroke:none" transform="matrix(3.07078 0 0 -3.07057 -409.882 1836.908)"/><path d="m150.953 587.936 1.999-4.789.78.548-.476 1.079.747.521.842-.828.785.546-3.707 3.599zm1.498-1.505c-.123.267-.364.747-.516 1.054l.022.013c.229-.253.573-.627.792-.851l.741-.774-.589-.413z" style="fill:url(#G);stroke:none" transform="matrix(3.07078 0 0 -3.07057 -409.882 1836.908)"/><path d="m156.631 591.207.476-1.015c.394-.845.828-1.615 1.084-2.087l-.012-.005c-.32.34-.816.819-1.121 1.114l-1.549 1.465-.821-.383 2.153-4.59.782.363-.479 1.031c-.438.927-.804 1.62-1.043 2.074l.016.007c.295-.368.781-.85 1.108-1.167l1.521-1.418.819.386-2.151 4.592z" style="fill:url(#H);stroke:none" transform="matrix(3.07078 0 0 -3.07057 -409.882 1836.908)"/><path d="M161.664 592.989c-1.036-.282-1.853-1.298-1.391-3.082.212-.845.634-1.512 1.166-1.805.415-.238.88-.285 1.44-.132.352.095.78.307.966.452l-.707 2.613-1.316-.356.215-.778.435.119.318-1.182a.51.51 0 0 0-.183-.074c-.44-.121-1.011.174-1.333 1.352-.344 1.278.05 1.861.696 2.035.239.067.432.074.587.044l-.057.866a1.196 1.196 0 0 1-.227.019c-.162 0-.369-.024-.609-.091" style="fill:url(#I);stroke:none" transform="matrix(3.07078 0 0 -3.07057 -409.882 1836.908)"/><path d="m169.279 593.895.051-3.295c.018-.764-.182-.973-.469-.978-.256-.005-.485.215-.497.961l-.062 3.297-.983-.02.055-3.13c.024-1.273.449-1.993 1.513-1.976.979.02 1.451.735 1.431 2.038l-.057 3.12z" style="fill:url(#J);stroke:none" transform="matrix(3.07078 0 0 -3.07057 -409.882 1836.908)"/><path d="m172.037 588.73.855-.134.177 1.122c.16 1.012.246 1.789.305 2.3l.012-.002c.044-.474.172-1.143.268-1.59l.464-2.024.893-.142.791 5.01-.857.135-.17-1.106c-.15-.923-.216-1.802-.272-2.335l-.015.002a34.868 34.868 0 0 1-.305 1.548l-.463 2.085-.892.141z" style="fill:url(#K);stroke:none" transform="matrix(3.07078 0 0 -3.07057 -409.882 1836.908)"/><path d="m176.646 587.813.946-.29 1.485 4.85-.946.285z" style="fill:url(#L);stroke:none" transform="matrix(3.07078 0 0 -3.07057 -409.882 1836.908)"/><path d="m179.859 586.662 1.006-.458 3.169 4.126-.988.452-1.218-1.826a43.63 43.63 0 0 1-.961-1.52l-.017.006c.189.569.353 1.179.496 1.711l.584 2.141-.99.454z" style="fill:url(#M);stroke:none" transform="matrix(3.07078 0 0 -3.07057 -409.882 1836.908)"/><path d="m182.993 585.061 1.917-1.261.47.718-1.093.72.755 1.143.968-.636.455.683-.971.637.639.976 1.02-.669.472.713-1.842 1.215z" style="fill:url(#N);stroke:none" transform="matrix(3.07078 0 0 -3.07057 -409.882 1836.908)"/><path d="m186.098 582.89.728-.663 1.362 1.5.106-.096c.242-.224.239-.463-.118-.991-.32-.462-.581-.92-.63-1.064l.765-.691c.059.199.376.753.684 1.234.291.469.383.825.214 1.157l.011.01c.543-.169 1.072.017 1.434.419.293.324.457.636.413 1.047-.042.447-.35.826-.753 1.189a5.888 5.888 0 0 1-.865.652zm2.726 1.282-.129.118 1.018 1.123a.806.806 0 0 0 .191-.135c.319-.309.243-.656-.047-.971-.175-.196-.391-.307-.604-.307a.64.64 0 0 0-.429.172" style="fill:url(#O);stroke:none" transform="matrix(3.07078 0 0 -3.07057 -409.882 1836.908)"/><path d="M191.922 582.277c-.352-.288-.602-.829-.497-1.633.057-.507.057-.797-.23-1.031-.258-.206-.586-.183-.881.18-.176.222-.331.543-.371.775l-.754-.425c.03-.192.199-.568.454-.883.625-.772 1.53-.922 2.25-.34.417.335.657.852.553 1.628-.089.634-.06.854.172 1.042.211.173.536.173.801-.155.182-.223.254-.445.275-.612l.761.413c-.026.175-.156.475-.362.733-.373.459-.808.661-1.23.661-.334 0-.661-.127-.941-.353" style="fill:url(#P);stroke:none" transform="matrix(3.07078 0 0 -3.07057 -409.882 1836.908)"/><path d="m191.497 576.826.524-.839 4.301 2.688-.523.836z" style="fill:url(#Q);stroke:none" transform="matrix(3.07078 0 0 -3.07057 -409.882 1836.908)"/><path d="m196.498 576.563.375-.809-3.773-1.755.415-.895 3.774 1.756.383-.819.827.383-1.175 2.525z" style="fill:url(#R);stroke:none" transform="matrix(3.07078 0 0 -3.07057 -409.882 1836.908)"/><path d="m196.463 570.757-1.866-.536.27-.947 1.9.543 3.285-.236-.278.983-1.227-.039a12.796 12.796 0 0 1-1.12-.078l-.003.014c.337.175.673.377.957.551l1.072.666-.291 1.014z" style="fill:url(#S);stroke:none" transform="matrix(3.07078 0 0 -3.07057 -409.882 1836.908)"/></svg>