<svg xmlns="http://www.w3.org/2000/svg" xml:space="preserve" width="478.71542" height="478.71542" viewBox="0 0 478.71546 478.71541"><g style="stroke-width:.574995"><g style="stroke-width:.574995"><path d="m0 0 7.693 1.495.628-3.229-4.97-.967 2.826-14.537-2.723-.529zm13.541-10.515a207 207 0 0 0-1.415 5.624L6.936-5.9l-.612 3.146 5.059.983c-.661 2.813-1.175 5.154-1.54 7.032l2.715.994q1.77-9.11 3.61-16.031zM22.012-.413q-.289 1.486-1.053 2.242c-.505.505-1.046.702-1.615.591-.581-.113-1.019-.496-1.305-1.141-.282-.645-.327-1.472-.129-2.489.194-.997.545-1.747 1.063-2.246q.774-.746 1.626-.579.918.177 1.319 1.12.398.942.094 2.502m-6.61-1.285q-.558 2.882.345 4.909c.605 1.358 1.595 2.167 2.97 2.435q2.069.403 3.658-1.173Q23.97 2.903 24.52.074c.376-1.934.268-3.57-.314-4.904q-.878-2.001-2.984-2.409c-1.384-.269-2.611.114-3.673 1.156q-1.598 1.556-2.147 4.385m-7.508-11.2 1.793.349-.936 4.816 2.507.487.937-4.816L26.82-9.219l.632-3.253L8.526-16.15zm-24.63 49.362q-1.98 1.546-3.398 1.754c-.944.134-1.651-.093-2.121-.695s-.516-1.346-.148-2.231q.56-1.33 2.516-2.861 1.97-1.538 3.399-1.766c.949-.156 1.667.07 2.142.678.465.595.511 1.339.146 2.228-.366.895-1.21 1.856-2.536 2.893m-4.826-6.176q-3.099 2.42-3.932 4.934-.836 2.51.607 4.357 1.433 1.834 4.084 1.64 2.657-.196 5.744-2.608 3.098-2.422 3.935-4.96.836-2.54-.59-4.364-1.445-1.847-4.091-1.634-2.648.206-5.757 2.635m8.36 16.3-4.495 3.513-1.927-2.466 4.496-3.512zm1.843-2.943 3.883-3.035 1.628 2.084-3.883 3.034zM-23.86 47.47l7.578 9.699 2.55-1.992-2.258-2.89 4.496-3.513 2.258 2.89 2.572-2.009-1.465-1.875 3.884-3.034 1.976 2.528 2.551-1.992L-8.689 33.8l-2.551 1.992 2.153 2.756-3.884 3.035-1.271-1.628zm-42.542 6.841q-3.859-.37-10.775-.248l.282 16.163 9.992-.175-.049-2.778-6.759.118-.185-10.61 1.462-.026q3.09-.055 5.841.253zm6.93-7.605.221 12.674-2.298.04-.208-11.925-3.25.057.421 24.102 3.25-.057-.164-9.403 2.298-.04.173 9.915 3.276-.057-.443-25.364zm-62.463-5.873q-1.223-.957-1.409-2.213c-.129-.835.112-1.639.711-2.406q.859-1.1 2.113-1.232 1.262-.135 2.504.834 1.23.964 1.411 2.242.185 1.273-.658 2.351-.885 1.132-2.161 1.257-1.28.128-2.511-.833m5.606-7.219q-2.302-1.799-4.804-1.623c-1.672.112-3.033.848-4.089 2.2q-1.64 2.094-1.211 4.539c.283 1.628 1.217 3.059 2.79 4.289 1.56 1.218 3.177 1.774 4.842 1.663q2.498-.167 4.142-2.267c1.063-1.362 1.445-2.865 1.145-4.5-.3-1.636-1.241-3.071-2.815-4.301m-14.193 5.67-1.708 2.186 4.789 3.742-2.153 2.755 2.632 2.056 2.153-2.755 4.796 3.748 1.708-2.186zm20.479 6.452 7.125-9.119-2.604-2.034-15.618 19.99 2.604 2.034 6.785-8.685 3.127 2.444 1.708-2.186zm-25.681-60.188-8.222 1.599.632 3.252 5.499-1.069 2.585 13.295 2.723-.53zm-19.813 6.623q-.3-1.546.578-2.746.88-1.195 2.624-1.534c1.15-.224 2.148-.075 2.986.443q1.257.784 1.559 2.332c.204 1.048.013 1.968-.572 2.749-.583.786-1.455 1.289-2.605 1.512q-1.707.333-2.989-.438c-.854-.511-1.38-1.287-1.581-2.318m10.471-2.035c-.374-1.926-1.302-3.406-2.787-4.429q-2.22-1.538-5.097-.981-2.908.567-4.39 2.825c-.988 1.504-1.294 3.224-.92 5.149.376 1.93 1.298 3.407 2.778 4.431q2.212 1.54 5.133.973c1.925-.374 3.384-1.315 4.368-2.819q1.476-2.255.915-5.149m5.547 9.531-17.736 3.448.618 3.177 17.736-3.448z" style="fill:#0088cd;fill-opacity:1;fill-rule:nonzero;stroke:none;stroke-width:.574995" transform="matrix(2.31886 0 0 -2.31886 393.337 189.34)"/></g><g style="stroke-width:.574995"><path d="m0 0-15.06 3.477-.799-3.461L2.124-4.137l2.284 9.892-2.924.676Zm-13.107-10.841q-.446.344-.981.738-.534.396-1.077.787l-1.031.744.029.065 1.221-.259q.653-.14 1.312-.268.663-.133 1.251-.238l4.286-.7-1.601-3.595zm-6.603 1.573 14.732-12.286 1.464 3.289-3.933 3.144 2.011 4.517 4.987-.777 1.513 3.4-18.959 2.792zm-8.998-15.137 2.605-1.628 2.404 3.846 13.046-8.152 1.882 3.012-13.046 8.152 2.417 3.867-2.606 1.628zm13.124-12.425-14.138 11.863-2.283-2.721 14.138-11.864zm-21.327.201q.137.197.399.48.258.28.666.636.745.65 1.512.865c.512.142 1.01.135 1.5-.032q.733-.248 1.383-.987.655-.755.817-1.574a2.8 2.8 0 0 0-.168-1.63q-.336-.809-1.168-1.54a13 13 0 0 0-.538-.442 4 4 0 0 0-.467-.304zm10.298-11.847-4.535 5.217q.237.137.497.331c.173.136.354.282.544.448.35.303.701.651 1.043 1.049q.517.593.933 1.304.419.715.656 1.52a5.3 5.3 0 0 1 .204 1.686c-.022.586-.164 1.189-.418 1.811q-.387.93-1.21 1.884a6 6 0 0 1-1.226 1.081 5.3 5.3 0 0 1-1.377.658 4.7 4.7 0 0 1-1.445.212c-.775-.005-1.568-.208-2.387-.602q-1.225-.593-2.541-1.741a33 33 0 0 1-1.979-1.869 21 21 0 0 1-1.373-1.555l11.951-13.748zm-15.911-10.455q.52.015 1.244.207.725.196 1.533.548c.545.234 1.071.519 1.59.85.9.59 1.622 1.225 2.175 1.909q.822 1.028 1.134 2.125.315 1.091.135 2.186a5.5 5.5 0 0 1-.841 2.11q-.656 1.02-1.575 1.596-.919.58-2.15.74c-.822.105-1.762.077-2.825-.094a23 23 0 0 0-1.602-.191 5.6 5.6 0 0 0-1.179.016 2.2 2.2 0 0 0-.861.29 2.1 2.1 0 0 0-.623.636 1.84 1.84 0 0 0-.297.985q-.01.546.336 1.115.342.573 1.125 1.088.638.406 1.227.644.593.234 1.093.343.501.11.869.14l-.958 2.84a7 7 0 0 1-1.08-.21 9.5 9.5 0 0 1-1.281-.464 11 11 0 0 1-1.417-.778q-1.251-.818-2.02-1.804-.767-.976-1.06-2.033a4.9 4.9 0 0 1-.127-2.109 5.3 5.3 0 0 1 .787-2.007 4.45 4.45 0 0 1 1.651-1.527q.992-.528 2.264-.638 1.272-.105 2.771.154c.73.125 1.352.182 1.879.171.521-.01.96-.106 1.319-.278a2.2 2.2 0 0 0 .892-.815q.376-.576.37-1.194-.004-.621-.405-1.226-.403-.605-1.226-1.145-.63-.407-1.318-.688a8.7 8.7 0 0 0-1.354-.442 6.5 6.5 0 0 0-1.232-.175zm-15.424 9.292q.758.302 1.482.219a3.5 3.5 0 0 0 1.402-.481 5.7 5.7 0 0 0 1.272-1.044q.597-.647 1.1-1.475a13 13 0 0 0 .883-1.778q.528-1.302.741-2.519.219-1.212.093-2.248-.127-1.034-.632-1.787-.504-.756-1.419-1.135a3.04 3.04 0 0 0-1.801-.166q-.893.194-1.703.843-.818.647-1.503 1.658a12 12 0 0 0-1.204 2.275 12.6 12.6 0 0 0-.6 1.901 9.2 9.2 0 0 0-.239 1.841 5.8 5.8 0 0 0 .192 1.661q.214.768.687 1.343.478.575 1.249.892m-.999 2.729a7.7 7.7 0 0 1-2.304-1.431 7.1 7.1 0 0 1-1.532-2.039 8 8 0 0 1-.753-2.504 10.3 10.3 0 0 1 .04-2.831q.215-1.48.837-3.022c.402-.994.883-1.896 1.442-2.693a10.1 10.1 0 0 1 1.858-2.049 7.6 7.6 0 0 1 2.2-1.29 6.6 6.6 0 0 1 2.465-.419q1.285.022 2.645.564 1.601.647 2.699 1.755a6.75 6.75 0 0 1 1.617 2.629c.345 1.015.464 2.16.367 3.427-.102 1.266-.449 2.649-1.048 4.141q-.555 1.374-1.348 2.536a10.4 10.4 0 0 1-1.79 2.016 7.7 7.7 0 0 1-2.17 1.324q-1.172.467-2.486.462-1.315-.007-2.739-.576m-11.479-4.162 1.406-7.233-6.172-1.2-1.406 7.233-3.487-.678 3.522-18.117 3.487.677-1.516 7.799 6.172 1.199 1.516-7.797 3.487.677-3.522 18.117zm-21.777-20.725q.654-.018 1.138.253.49.273.771.773.275.5.305 1.178.018.69-.234 1.209t-.724.819a2.2 2.2 0 0 1-1.097.326 2.1 2.1 0 0 1-1.105-.258 2.1 2.1 0 0 1-.785-.781q-.297-.5-.324-1.165a2.56 2.56 0 0 1 .227-1.177q.24-.52.711-.834.463-.314 1.117-.343m-9.037 11.365a110 110 0 0 1-1.446-3.076 72 72 0 0 1-1.326-3.133l-.071.014a62 62 0 0 1-.032 3.397 172 172 0 0 1-.164 3.389l-.493 8.408-3.816.743 1.732-19.138 3.981-.775 9.035 17.046-3.746.728zm-14.2-7.441 6.008 17.45-3.359 1.156-6.008-17.45zm-2.694 20.313-2.603-4.895a107 107 0 0 1-1.918-3.769 70 70 0 0 1-1.547-3.413l-.043.023q.126 1.027.21 2.158.089 1.129.136 2.266.047 1.136.045 2.191l.083 8.436-3.391 1.803-8.664-16.296 2.839-1.509 2.659 5.001q.77 1.446 1.422 2.723.648 1.272 1.2 2.411.55 1.136 1.018 2.172l.085-.045a49 49 0 0 1-.22-2.239q-.087-1.162-.13-2.322-.046-1.16-.056-2.236l-.086-8.598 3.136-1.667 8.665 16.296zm-13.452 7.528-7.014-8.66q-1.034-1.271-1.968-1.834-.936-.564-1.776-.502-.84.06-1.587.672-.716.572-.936 1.385-.225.81.127 1.849.356 1.038 1.365 2.296l7.014 8.661-2.76 2.234-6.817-8.418q-1.697-2.107-2.208-3.94-.512-1.834.082-3.406.595-1.571 2.216-2.876 1.632-1.321 3.337-1.607c1.14-.187 2.292.002 3.447.571 1.157.571 2.303 1.546 3.437 2.94l6.801 8.399zm-21.416 10.963q.504.25 1.094.557.588.308 1.179.624.595.318 1.12.601l.046-.056q-.36-.46-.767-.983a73 73 0 0 1-.817-1.062 61 61 0 0 1-.762-1.02l-2.508-3.545-2.53 3.015zm4.309 5.245-17.501-7.856 2.314-2.758 4.549 2.158 3.179-3.787-2.884-4.144 2.391-2.85 10.821 15.817zm-5.172 7.581-6.444-3.572-3.048 5.499 6.444 3.572-1.722 3.107-16.142-8.948 1.722-3.106 6.948 3.851 3.048-5.5-6.947-3.851 1.721-3.107 16.143 8.948zm-6.151 13.261-5.273-1.713a110 110 0 0 1-3.997-1.379 73 73 0 0 1-3.485-1.381l-.014.046q.804.652 1.65 1.407a59 59 0 0 1 3.226 3.079l5.921 6.012-1.187 3.652-17.553-5.703.994-3.059 5.386 1.75q1.559.507 2.915.973 1.35.463 2.538.9 1.185.435 2.242.855l.029-.092a48 48 0 0 1-1.713-1.457 61 61 0 0 1-1.707-1.581 69 69 0 0 1-1.594-1.569l-6.034-6.124 1.097-3.379 17.553 5.704zm-21.581 9.101 18.175 3.205-.616 3.498-18.176-3.205z" style="fill:#0088cd;fill-opacity:1;fill-rule:nonzero;stroke:none;stroke-width:.574995" transform="matrix(2.31886 0 0 -2.31886 444.877 291.566)"/></g><g style="stroke-width:.574995"><path d="M0 0c36.186 0 65.532-29.346 65.532-65.532 0-36.187-29.346-65.532-65.532-65.532-36.187 0-65.533 29.345-65.533 65.532S-36.187 0 0 0" style="fill:#0088cd;fill-opacity:1;fill-rule:evenodd;stroke:none;stroke-width:.574995" transform="matrix(2.31886 0 0 -2.31886 239.36 87.397)"/></g><g style="stroke-width:.574995"><path d="M0 0c-18.168 18.167-43.265 29.406-70.981 29.406-27.717 0-52.814-11.239-70.982-29.406s-29.406-43.265-29.406-70.981c0-27.717 11.239-52.813 29.406-70.981 18.168-18.167 43.265-29.407 70.982-29.407S-18.168-160.129 0-141.962s29.406 43.264 29.406 70.981S18.167-18.167 0 0m-70.981 32.241c28.499 0 54.304-11.556 72.985-30.237S32.24-42.482 32.24-70.981s-11.556-54.305-30.236-72.985c-18.681-18.681-44.486-30.237-72.985-30.237s-54.305 11.556-72.986 30.237c-18.68 18.68-30.237 44.486-30.237 72.985s11.557 54.305 30.237 72.985c18.681 18.681 44.487 30.237 72.986 30.237" style="fill:#0088cd;fill-opacity:1;fill-rule:nonzero;stroke:none;stroke-width:.574995" transform="matrix(2.31886 0 0 -2.31886 403.955 74.762)"/></g><g style="stroke-width:.574995"><path d="M0 0h-19.246v78.67c-1.95-.109-4.118-1.607-5.955-3.792-2.084-2.478-3.564-5.694-3.822-8.847V25.035h-.018c.143-6.842-2.021-12.867-5.713-17.399-3.914-4.805-9.508-7.907-15.898-8.546l-.411-.041h-12.934V9.537h12.682a12.92 12.92 0 0 1 8.449 4.695c2.2 2.701 3.481 6.394 3.375 10.68l-.02.123v40.996l.02.287c.323 5.534 2.792 11.106 6.301 15.28 3.693 4.393 8.797 7.3 13.944 7.435H0V59.616h10.641V49.602H0V29.417h10.64V19.402H0Z" style="fill:#fff;fill-opacity:1;fill-rule:evenodd;stroke:none;stroke-width:.574995" transform="matrix(2.31886 0 0 -2.31886 290.587 342.54)"/></g></g></svg>